<svg xmlns="http://www.w3.org/2000/svg" width="38" height="50" viewBox="0 0 38 50">
    <g fill="none" fill-rule="evenodd" stroke="#4B4B4B" stroke-linecap="round" stroke-linejoin="round" stroke-width="2">
        <path d="M23.535 2.997a3.45 3.45 0 0 0-4.87-.23L2.997 17.027a3.45 3.45 0 0 0-.23 4.87l12.16 13.36a3.45 3.45 0 0 0 4.87.23l15.668-14.26a3.45 3.45 0 0 0 .23-4.87l-12.16-13.36z"/>
        <path d="M2.899 24.371a3.315 3.315 0 0 0-.22 4.683L14.368 41.9a3.315 3.315 0 0 0 4.683.22l15.065-13.71a3.315 3.315 0 0 0 .22-4.683"/>
        <path d="M2.86 30.62a3.264 3.264 0 0 0-.216 4.611l11.509 12.647a3.264 3.264 0 0 0 4.61.217l14.831-13.497a3.264 3.264 0 0 0 .217-4.611M8.592 18.945l12-11"/>
    </g>
</svg>
